# xmcd
#
# Track frame offsets: 
#        150
#        24442
#        50545
#        70989
#        102274
#        116120
#        137972
#        157429
#        183051
#        210283
#        226980
#
# Disc length: 3152 seconds
#
# Revision: 1
# Processed by: cddbd v1.5.2PL0 Copyright (c) Steve Scherf et al.
# Submitted via: ExactAudioCopyFreeDBPlugin 1.0
#
DISCID=990c4e0b
DTITLE=Gary Clark Jr. - Worry No More
DYEAR=2001
DGENRE=Blues
TTITLE0=I Like the Way You Love Me
TTITLE1=Find Somebody Else
TTITLE2=Blazin'
TTITLE3=When My Train Pulls In
TTITLE4=Shotgun Man
TTITLE5=Heavy Heart
TTITLE6=Insecure
TTITLE7=Up to No Good
TTITLE8=Have to Let You Go
TTITLE9=Drifting . . .
TTITLE10=Worry No More
EXTD=YEAR: 2001 ID3G: 0
EXTT0=
EXTT1=
EXTT2=
EXTT3=
EXTT4=
EXTT5=
EXTT6=
EXTT7=
EXTT8=
EXTT9=
EXTT10=
PLAYORDER=
